<mxfile host="app.diagrams.net" modified="2023-05-12T09:32:47.602Z" agent="Mozilla/5.0 (Macintosh; Intel Mac OS X 10_15_7) AppleWebKit/537.36 (KHTML, like Gecko) Chrome/113.0.0.0 Safari/537.36 Edg/113.0.1774.35" version="21.2.9" etag="0sIqnUv24Ud95ug1k7EE" type="github">
  <diagram name="Page-1" id="wQUGXdMJ6Q_dD7qGj5Qh">
    <mxGraphModel>
      <root>
        <mxCell id="0" />
        <mxCell id="1" parent="0" />
      </root>
    </mxGraphModel>
  </diagram>
</mxfile>
